# xmcd
#
# Track frame offsets: 
#        150
#        17645
#        40217
#        51075
#        67742
#        91995
#        104685
#        127127
#        135645
#        156932
#        179175
#        197405
#        238950
#        257672
#        273525
#        306652
#
# Disc length: 4801 seconds
#
# Revision: 1
# Processed by: cddbd v1.5.2PL0 Copyright (c) Steve Scherf et al.
# Submitted via: ExactAudioCopy v0.99pb5
#
DISCID=f112bf10
DTITLE=Stevie Ray Vaughan  - The Essential Stevie Ray Vaughan and Doub
DTITLE=le Trouble CD1
DYEAR=2002
DGENRE=Blues
TTITLE0=Shake For Me (Live)
TTITLE1=Rude Mood - Hide Away (Live)
TTITLE2=Love Struck Baby
TTITLE3=Pride And Joy
TTITLE4=Texas Flood
TTITLE5=Mary Had a Little Lamb
TTITLE6=Lenny
TTITLE7=Scuttle Buttin'
TTITLE8=Couldn't Stand The Weather
TTITLE9=The Things (That) I Used To Do
TTITLE10=Cold Shot
TTITLE11=Tin Pan Alley (aka The Roughest Place In Town)
TTITLE12=Give Me Back My Wig
TTITLE13=Empty Arms
TTITLE14=The Sky Is Crying (Live)
TTITLE15=Voodoo Child (Slight Return) (Live)
EXTD=YEAR: 2002
EXTT0=
EXTT1=
EXTT2=
EXTT3=
EXTT4=
EXTT5=
EXTT6=
EXTT7=
EXTT8=
EXTT9=
EXTT10=
EXTT11=
EXTT12=
EXTT13=
EXTT14=
EXTT15=
PLAYORDER=
